<svg width="25" height="20" viewBox="0 0 25 20" fill="none" xmlns="http://www.w3.org/2000/svg">
<path opacity="0.5" d="M17.7693 13.1245L17.2761 12.7432L15.7409 11.5565L15.4568 11.3369L15.5742 10.9974C15.686 10.6743 15.7453 10.3353 15.7499 9.99342L17.7693 13.1245ZM17.7693 13.1245L18.0344 12.5603M17.7693 13.1245L18.0344 12.5603M18.0344 12.5603C18.3974 11.7879 18.6248 10.9285 18.6249 10.0003M18.0344 12.5603L18.6249 10.0003M12.2558 6.76311C12.5471 6.73637 12.8416 6.74956 13.131 6.80312C13.6233 6.8942 14.0874 7.09947 14.486 7.40244C14.8846 7.70541 15.2066 8.09764 15.4261 8.54762C15.6456 8.99758 15.7565 9.49275 15.7499 9.99334L12.2558 6.76311ZM12.2558 6.76311C12.3338 6.99912 12.3744 7.24744 12.3749 7.49911L12.3749 7.51059L12.3744 7.52205C12.3669 7.69029 12.3412 7.85721 12.2977 8.01988L12.1035 8.74572L11.5089 8.28624L8.63355 6.06398L8.14136 5.68358L8.61869 5.28469C9.70735 4.37493 11.0807 3.87605 12.4995 3.875L12.4996 3.875C13.3041 3.87455 14.1008 4.03268 14.8441 4.34035C15.5875 4.64801 16.2629 5.09918 16.8318 5.66805C17.4007 6.23693 17.8518 6.91235 18.1595 7.65571C18.4672 8.39906 18.6253 9.19577 18.6249 10.0003M12.2558 6.76311L18.6249 10.0003M12.4999 16.125L12.5045 16.125C12.799 16.1222 13.0929 16.0983 13.3838 16.0533L14.3887 16.8309C13.7708 16.9389 13.1414 17 12.4999 17C7.89945 17 3.87078 14.3214 1.83146 10.3436C1.77782 10.2371 1.74988 10.1195 1.74988 10.0002C1.74988 9.88088 1.77783 9.76323 1.8315 9.65668C2.13735 9.05954 2.50434 8.49895 2.90955 7.95959L6.44047 10.6884C6.78425 13.7423 9.34679 16.125 12.4999 16.125ZM20.1179 14.1747L19.6442 14.5739L20.1343 14.9526L24.4517 18.2894C24.4518 18.2895 24.4519 18.2896 24.4521 18.2897C24.478 18.31 24.4949 18.3398 24.499 18.3725C24.5032 18.4054 24.4941 18.4386 24.4737 18.4648L23.7066 19.4518L23.7066 19.4518C23.6965 19.4648 23.684 19.4756 23.6697 19.4837C23.6554 19.4919 23.6397 19.4971 23.6234 19.4991C23.6071 19.5012 23.5906 19.5 23.5748 19.4956C23.5589 19.4913 23.5441 19.4838 23.5311 19.4737L23.5298 19.4727L0.548205 1.71077C0.548083 1.71068 0.547961 1.71058 0.547839 1.71049C0.52188 1.69014 0.505007 1.66036 0.500909 1.62762C0.496792 1.59473 0.505908 1.56155 0.526252 1.53538L0.526356 1.53525L1.29311 0.548199C1.29312 0.548179 1.29314 0.548158 1.29315 0.548138C1.30322 0.535197 1.31574 0.524364 1.32999 0.516254C1.34426 0.508133 1.36 0.502903 1.37629 0.500864C1.39259 0.498825 1.40912 0.500018 1.42496 0.504373C1.44079 0.508728 1.45561 0.51616 1.46857 0.526246L1.46857 0.526248L1.46987 0.527247L6.4394 4.36826L6.69798 4.56812L6.98481 4.41148C8.67646 3.48767 10.5726 3.0024 12.5001 3C17.1005 3.00008 21.1291 5.67872 23.1683 9.65656C23.2219 9.76304 23.2498 9.88059 23.2498 9.9998C23.2498 10.119 23.2219 10.2366 23.1683 10.3431C22.4155 11.8098 21.3786 13.1123 20.1179 14.1747Z" stroke="#18345E"/>
</svg>
